<svg
              class="w-36 lg:w-52"
              viewBox="0 0 632 140"
              fill="none"
              xmlns="http://www.w3.org/2000/svg"
            >
              <path
                d="M106.112 78.5037C105.512 78.5037 104.922 78.5397 104.325 78.6301C104.325 78.6301 104.322 78.2663 104.311 77.7381C81.7926 93.2463 56.2895 79.6647 33.8292 73.5101L33.8292 76.2089C33.0625 76.3657 32.3436 76.5237 31.6694 76.711C31.6401 76.719 31.6238 76.7252 31.589 76.7252C28.303 77.6705 24.9766 78.923 21.7137 80.5056C18.1826 82.1926 14.9295 84.2838 12.0476 86.7409C8.89894 89.4114 6.2849 92.5906 4.2841 96.1663C2.01877 100.222 0.858811 104.855 0.858811 109.905C0.858811 115.39 2.26278 120.271 5.04224 124.409C7.48291 128.037 10.6219 131.056 14.3827 133.353C17.7753 135.408 21.5372 136.975 25.566 137.956C29.3801 138.91 33.1104 139.382 36.6676 139.382C43.0205 139.382 49.0652 138.255 54.6274 136.045C60.9662 133.507 66.266 129.019 70.4025 122.663C70.42 122.639 70.4341 122.632 70.4417 122.618C71.3795 121.142 72.1897 119.772 72.8966 118.438C74.2558 115.875 74.9278 113.005 74.9278 109.905C74.9278 109.332 74.8886 108.774 74.7862 108.23C74.967 108.409 75.2698 108.745 75.7043 109.189C76.3546 109.901 77.0364 110.606 77.7172 111.281C78.2181 111.79 78.669 112.263 79.0492 112.714C79.3324 113.042 79.5883 113.332 79.8127 113.582C80.916 114.989 82.5497 116.34 85.0295 117.264C86.1546 117.695 87.3669 117.916 88.5715 117.916L89.1018 117.916C93.3974 117.916 96.6061 115.569 98.6558 113.796C100.203 112.454 101.774 110.895 103.365 109.189C104.732 107.674 106.035 106.209 107.209 104.838C108.555 103.245 108.973 102.824 108.973 102.824C110.087 101.714 111.25 100.395 112.491 98.8238C114.911 95.7719 116.188 92.2562 116.188 88.6534C116.188 83.0465 111.682 78.5037 106.112 78.5037Z"
                fill="#050606"></path>
              <path
                d="M231.886 110.794C228.143 110.794 225.565 108.783 224.323 107.833C223.427 107.142 222.395 106.281 221.207 105.209C220.279 104.375 219.297 103.513 218.275 102.621C217.38 101.834 216.599 101.196 215.95 100.714C212.404 98.0575 209.859 94.5102 208.41 90.1951C207.565 87.6791 206.818 85.1981 206.195 82.8521C206.009 82.1387 205.905 81.4427 205.865 80.7075L205.75 78.0349C205.655 76.0025 205.574 74.2033 205.494 72.6098C205.387 70.2181 205.331 67.5486 205.331 64.6777C205.331 59.6022 206.215 54.7959 207.96 50.3882C210.009 45.2377 213.591 40.9269 218.595 37.6191C218.999 37.3435 219.889 36.7358 221.26 35.7947C222.8 34.7253 224.238 33.721 225.651 32.7158C227.254 31.5701 228.686 30.5538 229.965 29.6804C230.351 29.419 230.663 29.2087 230.883 29.0399C232.641 27.5402 234.915 26.6069 237.408 26.6069L237.94 26.6069C240.103 26.6069 242.206 27.3116 243.931 28.6086C245.558 29.8188 247.315 31.117 249.18 32.5067C251.458 34.2014 253.618 36.0725 255.598 38.0624C257.876 40.3801 259.828 42.9657 261.368 45.7888C263.313 49.3241 264.292 53.2231 264.292 57.3826L264.292 77.5513C264.292 81.4145 263.055 85.2798 260.629 89.0231C258.486 92.3199 256.162 94.7576 253.536 96.4805C253.499 96.4925 243.226 103.06 243.167 103.087C243.009 103.284 242.846 103.491 242.675 103.724C242.005 104.586 241.364 105.392 240.758 106.144C239.785 107.312 236.913 110.794 231.886 110.794Z"
                fill="#050606"></path>
              <path
                d="M235.791 42.1569C235.649 42.1569 235.571 42.2311 235.571 42.3737C235.571 42.512 235.614 42.5904 235.686 42.5904C235.83 42.5904 235.899 42.512 235.899 42.3737L235.899 42.2691C235.899 42.2005 235.863 42.1569 235.791 42.1569ZM228.456 75.966C229.154 77.4678 229.993 78.9306 230.953 80.3585C231.911 81.7906 232.97 83.0094 234.143 84.0169C235.312 85.0069 236.498 85.5133 237.702 85.5133C237.845 85.5133 238.028 85.4905 238.243 85.4534C238.453 85.4153 238.557 85.2585 238.557 84.9797L238.557 60.0733C238.557 59.789 238.501 59.1072 238.392 58.0464C238.296 56.9626 238.243 56.2951 238.243 55.9956C238.094 55.5097 237.615 54.6242 236.802 53.3108C235.978 52.0376 235.043 50.7404 233.982 49.4585C232.915 48.1701 231.819 47.0558 230.69 46.1268C229.555 45.2032 228.635 44.8482 227.923 45.0584L227.067 45.2674C227.067 45.6868 227.058 46.3545 227.022 47.2497C226.983 48.1613 226.962 49.098 226.962 50.1033C226.962 51.0955 226.941 52.0376 226.913 52.8915C226.879 53.7541 226.856 54.3542 226.856 54.7136L226.856 57.3972C226.856 57.9745 226.879 58.9689 226.913 60.3968C226.941 61.8289 226.962 63.3396 226.962 64.9112C226.962 66.4109 226.983 67.8497 227.022 69.2514C227.057 70.6456 227.067 71.5899 227.067 72.0919C227.277 73.1735 227.747 74.4618 228.456 75.966ZM213.198 69.1535C213.09 66.8891 213.031 64.4048 213.031 61.6928C213.031 57.8884 213.673 54.3846 214.949 51.1706C216.222 47.9632 218.485 45.2674 221.757 43.1153C222.18 42.831 223.12 42.2005 224.567 41.204C226.021 40.1835 227.528 39.1345 229.095 38.0248C230.648 36.9225 232.047 35.9336 233.29 35.0786C234.529 34.217 235.112 33.7934 235.043 33.7934L235.571 33.7934C237.212 35.01 238.962 36.3158 240.84 37.7024C242.721 39.1041 244.473 40.6191 246.099 42.2691C247.74 43.9093 249.103 45.7478 250.202 47.7497C251.301 49.7438 251.851 51.9548 251.851 54.3847L251.851 74.5674C251.851 76.43 251.172 78.3904 249.828 80.475C248.484 82.5433 247.101 84.0507 245.684 84.9797L235.571 91.4208C235.152 91.4208 234.656 91.7389 234.096 92.3804C233.516 93.0187 232.936 93.7299 232.331 94.5249C231.729 95.3047 231.163 96.0246 230.64 96.6836C230.103 97.3141 229.732 97.6354 229.513 97.6354C229.3 97.6354 228.825 97.3512 228.084 96.7696C227.337 96.2044 226.483 95.4833 225.535 94.6295C224.567 93.768 223.558 92.876 222.489 91.9459C221.437 91.0157 220.485 90.2326 219.62 89.5834C217.709 88.1621 216.365 86.2736 215.588 83.9537C214.805 81.636 214.133 79.3848 213.562 77.2468C213.42 74.1024 213.302 71.3948 213.198 69.1535Z"
                fill="white"></path>
              <path
                d="M93.3689 110.785C89.6365 110.785 87.0465 108.784 85.8027 107.828C84.8976 107.135 83.8705 106.281 82.6866 105.209C81.7641 104.375 80.7807 103.513 79.7494 102.621C78.8671 101.834 78.0819 101.184 77.4436 100.698C73.8843 98.0413 71.3368 94.5017 69.8893 90.1951C69.0485 87.6793 68.3024 85.1982 67.6816 82.8446C67.4942 82.1356 67.3843 81.4342 67.3484 80.7001L67.2329 78.0306C67.1381 75.9994 67.0608 74.199 66.9792 72.6099C66.8658 70.2138 66.8092 67.5422 66.8092 64.6625C66.8092 59.5947 67.7035 54.7927 69.4373 50.373C71.486 45.2149 75.0692 40.9117 80.0597 37.6116C80.4844 37.3361 81.3753 36.7196 82.7389 35.7917C84.2844 34.7254 85.7156 33.7103 87.1304 32.7159C88.739 31.5701 90.1712 30.554 91.4499 29.6761C91.8365 29.4061 92.1404 29.1969 92.3745 29.0314C94.1182 27.5283 96.4054 26.6069 98.9006 26.6069L99.43 26.6069C101.588 26.6069 103.683 27.3105 105.421 28.6011C107.035 29.8003 108.795 31.105 110.668 32.4949C112.942 34.1862 115.093 36.0683 117.078 38.0625C119.367 40.3638 121.305 42.9625 122.852 45.7889C124.796 49.3089 125.768 53.2146 125.768 57.3762L125.768 77.5438C125.768 81.4113 124.535 85.2593 122.106 89.0113C119.965 92.3201 117.65 94.7575 115.018 96.473C114.984 96.4926 104.701 103.056 104.65 103.071C104.493 103.284 104.326 103.491 104.162 103.708C103.499 104.575 102.856 105.392 102.24 106.144C101.27 107.312 98.3942 110.785 93.3689 110.785Z"
                fill="#050606"></path>
              <path
                d="M97.2756 42.1483C97.1317 42.1483 97.0588 42.2191 97.0588 42.3695C97.0588 42.5122 97.0969 42.5765 97.1622 42.5765C97.3027 42.5765 97.379 42.5122 97.379 42.3695L97.379 42.2682C97.379 42.193 97.3441 42.1483 97.2756 42.1483ZM89.938 75.9574C90.6449 77.4496 91.4781 78.9231 92.431 80.3434C93.3971 81.7789 94.458 83.0019 95.6212 84.0062C96.7886 85.007 97.9768 85.5049 99.1868 85.5049C99.3284 85.5049 99.4996 85.4906 99.7174 85.4537C99.932 85.4155 100.046 85.2543 100.046 84.9657L100.046 60.0669C100.046 59.7782 99.9842 59.1063 99.8829 58.0323C99.7762 56.9563 99.7174 56.281 99.7174 55.9957C99.5725 55.5013 99.0944 54.6015 98.2841 53.311C97.465 52.0214 96.5273 50.733 95.4675 49.4434C94.4067 48.1616 93.3056 47.0561 92.1632 46.126C91.0304 45.1882 90.109 44.8255 89.3901 45.0586L88.5515 45.2677C88.5515 45.687 88.5362 46.3535 88.5014 47.2499C88.4687 48.1506 88.4447 49.0841 88.4447 50.0969C88.4447 51.0957 88.4251 52.0214 88.3979 52.8841C88.3577 53.7499 88.3402 54.3467 88.3402 54.7062L88.3402 57.3822C88.3402 57.9638 88.3577 58.9614 88.3979 60.3903C88.4251 61.8138 88.4447 63.3202 88.4447 64.9026C88.4447 66.3959 88.4687 67.85 88.5014 69.244C88.5362 70.6457 88.5515 71.5899 88.5515 72.0921C88.765 73.1615 89.2257 74.4501 89.938 75.9574ZM74.6759 69.1383C74.567 66.8817 74.5168 64.4049 74.5168 61.6854C74.5168 57.8886 75.1562 54.3773 76.4326 51.1599C77.7102 47.9513 79.9692 45.2677 83.2344 43.1155C83.6645 42.8313 84.5925 42.193 86.0519 41.1889C87.507 40.1835 89.0143 39.1238 90.5718 38.0249C92.1326 36.9151 93.5398 35.9338 94.7694 35.0788C96.0144 34.2129 96.6025 33.7817 96.5273 33.7817L97.0588 33.7817C98.6892 34.9961 100.44 36.3007 102.317 37.7025C104.2 39.101 105.953 40.6117 107.584 42.2682C109.222 43.9095 110.58 45.7361 111.683 47.7346C112.786 49.7353 113.336 51.955 113.336 54.3773L113.336 74.5557C113.336 76.4193 112.652 78.3753 111.311 80.4675C109.963 82.5293 108.578 84.0355 107.164 84.9657L97.0588 91.409C96.6362 91.409 96.1406 91.727 95.5754 92.3729C95.0057 93.0101 94.4219 93.7289 93.8163 94.5174C93.213 95.3049 92.6478 96.0247 92.1174 96.6695C91.5816 97.3133 91.2145 97.6269 90.9988 97.6269C90.7886 97.6269 90.3061 97.3514 89.5677 96.773C88.8118 96.2013 87.9645 95.4836 87.0114 94.6154C86.0519 93.7605 85.038 92.8674 83.9706 91.9459C82.9196 91.0158 81.9535 90.2295 81.1083 89.5837C79.1947 88.1558 77.8432 86.2715 77.0665 83.9462C76.2889 81.6362 75.6125 79.3838 75.0462 77.2405C74.9057 74.0863 74.787 71.3885 74.6759 69.1383Z"
                fill="white"></path>
              <path
                d="M286.821 103.878C286.821 103.878 287.003 103.987 287.407 104.136C288.46 104.47 289.637 104.765 290.883 104.968C292.3 105.185 293.721 105.329 295.102 105.392C296.725 105.455 298.164 105.486 299.373 105.486L299.954 105.486C299.807 105.286 299.65 105.092 299.502 104.87C299.197 104.465 298.867 104.031 298.536 103.62C297.516 103.255 296.454 102.967 295.369 102.734C293.721 102.381 292.026 102.202 290.335 102.202C289.848 102.202 289.001 102.265 287.701 102.578C287.077 102.719 286.516 102.91 285.989 103.146C286.223 103.359 286.459 103.585 286.72 103.792C286.753 103.822 286.783 103.858 286.821 103.878ZM298.831 131.719C295.285 131.719 291.551 131.238 287.73 130.287C283.703 129.305 279.951 127.744 276.556 125.684C272.797 123.38 269.652 120.357 267.21 116.732C264.436 112.598 263.035 107.715 263.035 102.239C263.035 97.1833 264.187 92.5534 266.455 88.4898C268.462 84.9163 271.075 81.7426 274.227 79.0731C277.108 76.6138 280.356 74.5249 283.881 72.8345C287.144 71.2521 290.479 69.993 293.757 69.0553C293.787 69.0553 293.812 69.0459 293.843 69.041C294.515 68.8537 295.229 68.7002 296.001 68.539L296.001 47.498C296.001 42.8909 297.576 38.6171 300.585 35.0338C299.924 34.4686 299.293 33.8565 298.688 33.2258C296.67 31.1424 295.028 28.7506 293.809 26.104C292.441 23.1492 291.746 19.9678 291.746 16.6045C291.746 16.0991 291.773 15.4435 291.818 14.619C291.87 13.5571 292.026 12.3841 292.259 11.185C292.599 9.48261 293.151 7.90009 293.891 6.49075C295.927 2.63742 299.69 0.327302 303.952 0.327302C307.704 0.327302 311.023 2.19516 313.051 5.1501L325.973 5.1501C326.437 5.1501 326.921 5.19353 327.387 5.25353C327.387 5.25353 328.998 5.4942 329.966 5.62926C331.326 5.82753 332.761 6.04863 334.28 6.32636C335.718 6.5965 337.092 6.84794 338.408 7.1094C339.976 7.42087 340.983 7.64635 341.708 7.82608C341.721 7.82608 341.753 7.82609 341.778 7.83275C345.089 8.70289 348.246 10.1646 351.178 12.1741C354.012 14.1008 356.523 16.4554 358.635 19.1468C360.715 21.8074 362.416 24.7699 363.662 27.9306C364.977 31.2775 365.705 34.7518 365.805 38.2871C365.805 38.3253 366.503 70.9537 366.503 70.9537C367.09 70.8633 367.692 70.8295 368.28 70.8295C373.853 70.8295 378.36 75.3768 378.36 80.9814C378.36 84.5909 377.084 88.099 374.663 91.1583C373.421 92.7267 372.269 94.0369 371.144 95.1501C371.144 95.1501 370.739 95.577 369.394 97.1606C368.205 98.5274 366.913 99.9978 365.534 101.512C363.947 103.228 362.374 104.78 360.827 106.123C358.776 107.893 355.572 110.248 351.271 110.248L350.747 110.248C349.524 110.248 348.325 110.023 347.198 109.602C344.731 108.667 343.09 107.319 341.981 105.905C341.767 105.662 341.503 105.368 341.231 105.038C340.827 104.602 340.385 104.106 339.883 103.613C339.225 102.941 338.542 102.224 337.876 101.512C337.437 101.077 337.146 100.74 336.959 100.555C337.052 101.103 337.1 101.653 337.1 102.239C337.1 105.329 336.429 108.208 335.069 110.764C334.358 112.102 333.559 113.463 332.611 114.935C332.601 114.964 332.589 114.971 332.583 114.989C328.452 121.344 323.145 125.841 316.798 128.371C311.23 130.576 305.192 131.719 298.831 131.719Z"
                fill="#050606"></path>
              <path
                d="M330.182 30.9029C329.9 30.9628 329.762 31.2165 329.762 31.6369L329.762 44.5215C329.762 45.0192 330.012 45.8077 330.501 46.8826L336.368 46.8826L336.885 46.3468C336.818 46.3468 336.851 45.6117 336.993 44.1457C337.134 42.6743 337.211 41.4512 337.211 40.4469C337.211 39.5201 337.122 38.4745 336.937 37.3353C336.767 36.1885 336.461 35.1385 336.033 34.1713C335.618 33.1933 334.997 32.3938 334.168 31.7568C333.352 31.1164 332.319 30.7896 331.052 30.7896C330.754 30.7896 330.469 30.8212 330.182 30.9029ZM307.954 75.6392C308.313 75.7841 309.193 76.2088 310.609 76.9288C312.036 77.6444 312.917 78.1105 313.27 78.3305C313.76 78.6158 314.392 79.0733 315.131 79.7213C315.886 80.3585 316.626 81.0228 317.383 81.7112C318.125 82.3876 318.817 82.9757 319.503 83.4735C320.177 83.9647 320.746 84.2239 321.258 84.2239C322.674 84.1487 324.204 83.456 325.82 82.136C327.455 80.8006 328.313 79.3488 328.369 77.7978L328.369 65.6529C328.369 63.516 328.362 60.8541 328.321 57.6641C328.288 54.4881 328.253 51.261 328.221 48.0034C328.188 44.7578 328.128 41.7354 328.065 38.9472C327.991 36.158 327.924 34.1485 327.845 32.9265L327.845 32.2969C327.845 31.0629 327.455 30.3028 326.678 29.9793C325.897 29.658 324.98 29.5012 323.913 29.5012C323.197 29.5012 322.444 29.9128 321.628 30.7308C320.797 31.5476 320.407 32.2969 320.407 32.9265L320.407 62.2265C320.407 63.9429 319.743 65.5027 318.382 66.8891C317.038 68.2908 315.555 69.5096 313.924 70.5409C312.29 71.5844 310.781 72.4296 309.454 73.1081C308.091 73.7985 307.419 74.3464 307.419 74.7809L307.635 75.0991L307.954 75.6392ZM272.864 90.506C274.279 87.965 276.102 85.7529 278.341 83.8448C280.576 81.9552 283.075 80.3322 285.836 79.0122C288.603 77.6966 291.367 76.651 294.136 75.8494C294.908 75.6392 295.851 75.4628 296.953 75.3168C298.053 75.1709 299.092 74.9237 300.089 74.5674C301.084 74.2037 301.934 73.6973 302.649 73.0677C303.35 72.4231 303.71 71.4929 303.71 70.2644L303.71 44.5215C303.71 42.0208 304.673 39.7947 306.578 37.8679C308.496 35.9336 310.435 34.2912 312.431 32.9265C312.701 32.799 313.396 32.3938 314.5 31.7568C315.599 31.1164 316.435 30.4301 317.004 29.7178C316.435 29.0654 315.666 28.7584 314.708 28.8073C313.76 28.8412 313 28.7126 312.431 28.4206C310.781 28.0014 309.213 27.3413 307.69 26.4417C306.162 25.5497 304.78 24.4541 303.547 23.1765C302.305 21.875 301.306 20.4362 300.564 18.8244C299.82 17.2092 299.449 15.485 299.449 13.6172C299.449 13.3318 299.472 12.8558 299.501 12.2154C299.538 11.575 299.623 10.8921 299.765 10.1798C299.918 9.47183 300.118 8.84557 300.412 8.30544C300.691 7.77397 301.084 7.49945 301.581 7.49945C302.22 7.49945 302.59 7.93078 302.697 8.78465C302.8 9.64065 303.131 10.2844 303.71 10.7189C304.621 11.3648 305.557 11.7917 306.529 12.0096C307.489 12.2154 308.562 12.3244 309.769 12.3244L323.591 12.3244C324.089 12.4028 324.954 12.5269 326.208 12.699C327.447 12.871 328.745 13.1041 330.137 13.3515C331.521 13.5987 332.839 13.8578 334.116 14.1008C335.402 14.3632 336.316 14.5473 336.885 14.6932C339.085 15.2672 341.185 16.2268 343.176 17.5871C345.156 18.9441 346.89 20.5789 348.372 22.4763C349.854 24.3648 351.055 26.4417 351.931 28.6984C352.821 30.9474 353.296 33.2489 353.373 35.6101L354.227 75.6392C354.227 76.2088 354.432 76.9288 354.863 77.7978C355.287 78.6496 355.802 79.4708 356.393 80.2538C356.999 81.0522 357.661 81.7188 358.367 82.2972C359.077 82.8668 359.711 83.1521 360.284 83.1521C361.076 83.1521 361.666 82.8885 362.1 82.3385C362.523 81.8092 362.907 81.2254 363.265 80.5796C363.617 79.9348 363.981 79.3488 364.382 78.8021C364.769 78.2662 365.292 77.9852 365.923 77.9852C365.923 79.291 365.421 80.5501 364.442 81.8092C363.431 83.0617 362.523 84.1181 361.666 84.9797C361.242 85.4012 360.477 86.2551 359.385 87.5413C358.29 88.8309 357.077 90.1945 355.77 91.6277C354.443 93.0621 353.154 94.3288 351.899 95.4431C350.612 96.5452 349.603 97.104 348.903 97.104L348.372 97.104C347.812 96.8817 347.529 96.6988 347.529 96.5637C347.313 96.3426 346.931 95.9343 346.41 95.3308C345.873 94.7209 345.29 94.1045 344.654 93.4412C344.01 92.816 343.407 92.1789 342.848 91.5635C342.279 90.9645 341.888 90.5582 341.675 90.3372C340.25 88.699 339.293 86.7496 338.75 84.4852C338.218 82.2437 337.863 79.7692 337.692 77.0932C337.502 74.3986 337.431 71.5844 337.475 68.6176C337.502 65.6442 337.416 62.6316 337.211 59.5417C337.065 58.7511 336.767 58.287 336.301 58.1542C335.845 58.0049 335.316 57.9374 334.76 57.9374C334.478 57.9374 334.073 57.9526 333.541 57.9788C333.002 58.0278 332.452 58.0953 331.894 58.2C331.327 58.3045 330.826 58.4853 330.398 58.7369C329.967 58.9951 329.762 59.325 329.762 59.7596L329.762 76.9288C329.762 78.2858 329.512 79.4174 329.02 80.3094C328.518 81.209 327.886 82.0085 327.096 82.7164C326.315 83.4353 325.423 84.0593 324.387 84.6061C323.361 85.1344 322.312 85.7301 321.258 86.3792C319.557 87.3725 317.834 88.5532 316.102 89.8983C314.36 91.2792 312.883 92.5982 311.677 93.8714C310.695 94.8842 309.836 95.968 309.116 97.1562C308.421 98.3249 308.04 98.9173 307.954 98.9173L307.635 98.9173C307.571 98.9173 307.295 98.6178 306.84 98.0101C306.379 97.4144 305.855 96.6868 305.238 95.8624C304.647 95.052 304.02 94.258 303.387 93.5054C302.752 92.7474 302.22 92.2312 301.794 91.9459C299.658 91.0157 297.435 90.3067 295.083 89.8013C292.754 89.3068 290.376 89.052 287.968 89.052C286.478 89.052 284.828 89.2686 283.019 89.6956C281.209 90.1204 279.526 90.7979 277.965 91.6757C276.398 92.5753 275.107 93.7298 274.09 95.1729C273.059 96.5974 272.545 98.3205 272.545 100.313C272.545 102.104 273.092 103.65 274.188 104.924C275.291 106.227 276.515 107.428 277.863 108.586C278.925 109.511 280.252 110.248 281.845 110.772C283.436 111.323 285.144 111.723 286.954 112.013C288.763 112.301 290.554 112.477 292.318 112.548C294.093 112.623 295.652 112.65 297 112.65C300.059 112.65 302.911 112.512 305.557 112.23C308.221 111.933 310.661 111.334 312.909 110.403C315.131 109.479 317.175 108.102 319.026 106.317C320.875 104.533 322.491 102.174 323.913 99.2517L324.655 99.2517C324.655 100.68 324.372 101.929 323.806 103.004C323.23 104.082 322.565 105.215 321.782 106.431C318.809 111.011 315.12 114.175 310.729 115.93C306.321 117.695 301.581 118.557 296.478 118.557C293.706 118.557 290.8 118.171 287.748 117.433C284.707 116.676 281.92 115.535 279.409 114.003C276.885 112.454 274.815 110.472 273.182 108.038C271.555 105.61 270.74 102.674 270.74 99.2517C270.74 95.9636 271.443 93.049 272.864 90.506Z"
                fill="white"></path>
              <path
                d="M385.514 111.323C382.787 111.323 380.183 110.202 378.318 108.253C378.155 108.133 377.867 107.907 377.414 107.578C376.226 106.685 375.342 105.992 374.651 105.329C373.878 105.538 373.043 105.635 372.221 105.635C369.296 105.635 366.636 104.444 364.337 102.092C362.464 100.184 361.417 97.6277 361.417 94.9332L361.417 94.7208C361.417 91.6756 362.464 88.7512 364.474 86.2212C365.165 85.3477 365.924 84.4546 366.734 83.6018L366.734 27.8695C366.734 23.7504 367.781 19.9308 369.884 16.5152C371.65 13.6508 373.892 11.1589 376.601 9.11998C379.146 7.19652 382 5.67067 385.107 4.6164C388.231 3.56 391.343 3.0045 394.348 3.0045C399.101 3.0045 403.534 4.39973 407.492 7.15839C412.502 10.6296 415.26 15.8999 415.26 21.9729C415.26 25.8796 414.152 29.4858 412.069 32.3937C410.553 34.4893 407.16 37.9124 400.907 38.3144L400.907 78.657C406.372 78.7617 410.801 83.263 410.801 88.822L410.801 89.5692C410.801 92.9717 409.28 96.1062 406.283 98.8432C405.209 99.8409 403.909 100.907 402.422 101.996C401.179 102.913 399.86 103.897 398.477 104.887C397.749 105.397 397.073 105.901 396.42 106.355C396.319 106.49 396.226 106.603 396.144 106.715C395.226 107.849 392.428 111.323 387.432 111.323L385.514 111.323Z"
                fill="#050606"></path>
              <path
                d="M369.858 92.4817C369.709 92.4817 369.471 92.3205 369.104 91.9458L369.104 91.7389C369.104 91.0157 369.394 90.3068 369.963 89.5836C370.519 88.857 371.144 88.1622 371.821 87.4434C372.507 86.7278 373.098 85.9741 373.618 85.1944C374.171 84.3949 374.428 83.5453 374.428 82.6109L374.428 24.8888C374.428 22.6701 374.974 20.6684 376.077 18.8766C377.174 17.085 378.574 15.5482 380.276 14.2577C381.989 12.9692 383.884 11.9825 385.957 11.2516C388.06 10.5469 390.055 10.18 391.972 10.18C394.676 10.18 397.151 10.9717 399.414 12.5422C401.685 14.115 402.814 16.2682 402.814 18.9823C402.814 20.7619 402.389 22.2585 401.551 23.4348C400.698 24.6132 399.277 25.2046 397.289 25.2046C395.534 25.2046 394.142 24.6644 393.149 23.5404C392.146 22.4338 391.664 21.0212 391.664 19.3048C391.664 18.7308 391.839 18.0674 392.192 17.3214C392.545 16.5677 392.887 15.8586 393.203 15.1735C393.51 14.4983 393.737 13.9288 393.889 13.4528C394.026 12.9833 393.922 12.7666 393.57 12.7666C392.221 12.7666 391.211 13.1826 390.533 14.0409C389.873 14.9036 389.371 15.9676 389.051 17.2692C388.727 18.5466 388.551 19.9941 388.514 21.5614C388.479 23.1352 388.472 24.5969 388.472 25.9506L388.472 77.798C388.472 78.2141 388.606 78.9601 388.888 80.0405C389.183 81.1188 389.55 82.184 390.055 83.2557C390.557 84.3361 391.136 85.2945 391.812 86.1582C392.487 87.0056 393.183 87.4434 393.889 87.4434L394.323 87.4434C395.018 87.4434 395.676 87.1733 396.286 86.6385C396.883 86.106 397.57 85.8282 398.351 85.8282L398.351 86.6003C398.351 87.0055 397.942 87.6046 397.125 88.3474C396.319 89.1119 395.308 89.9277 394.094 90.8208C392.887 91.7205 391.63 92.6494 390.271 93.6057C388.929 94.5784 387.714 95.4508 386.652 96.2338C386.652 96.3874 386.422 96.7402 385.957 97.3142C385.499 97.8762 385.206 98.1725 385.057 98.1725L383.149 98.1725C382.936 97.8762 382.215 97.299 381.015 96.3994C379.822 95.5062 379.112 94.9138 378.895 94.6296C378.459 94.2069 378.077 93.6592 377.716 93.0186C377.368 92.3805 377.036 91.7389 376.713 91.0909C376.409 90.445 376.044 89.895 375.658 89.4268C375.257 88.9682 374.74 88.734 374.101 88.734L373.576 88.734L369.858 92.4817Z"
                fill="white"></path>
              <path
                d="M48.2547 110.168C45.5286 110.168 42.931 109.044 41.0556 107.105C40.8954 106.981 40.6208 106.76 40.157 106.423C38.9664 105.539 38.0996 104.837 37.4036 104.173C36.6184 104.383 35.7928 104.489 34.9737 104.489C32.0396 104.489 29.393 103.285 27.0818 100.942C25.2063 99.03 24.1597 96.4737 24.1597 93.7825L24.1597 93.5657C24.1597 90.5293 25.2064 87.5929 27.2137 85.0705C27.9074 84.197 28.6665 83.3093 29.4725 82.4543L29.4725 26.7145C29.4725 22.5921 30.5257 18.7714 32.6169 15.3602C34.391 12.4969 36.6489 10.0005 39.3477 7.97476C41.8898 6.04156 44.7378 4.51234 47.8485 3.46247C50.9775 2.40487 54.0903 1.85806 57.0974 1.85806C61.8515 1.85806 66.2658 3.2446 70.2378 6.00007C75.2446 9.47113 78.0034 14.7459 78.0034 20.8146C78.0034 24.7257 76.9023 28.3383 74.8144 31.2398C73.3004 33.3397 69.9068 36.7585 63.6529 37.1517L63.6529 77.4977C69.1269 77.6098 73.5347 82.1091 73.5347 87.6647L73.5347 88.4075C73.5347 91.8253 72.0241 94.9522 69.0354 97.6881C67.9615 98.689 66.659 99.751 65.1766 100.843C63.9339 101.766 62.6041 102.746 61.2219 103.732C60.4966 104.248 59.8137 104.745 59.1678 105.209C59.0677 105.339 58.9783 105.456 58.8955 105.558C57.9774 106.686 55.1762 110.168 50.177 110.168L48.2547 110.168Z"
                fill="#050606"></path>
              <path
                d="M417.538 111.323C416.311 111.323 415.129 111.101 413.997 110.67C411.039 109.558 408.219 107.734 405.58 105.245C403.348 103.131 401.309 100.669 399.558 97.9501C397.834 95.2796 396.419 92.4216 395.393 89.5191C394.234 86.2549 393.63 83.128 393.63 80.2342L393.63 62.2112C393.63 57.016 395.227 52.166 398.248 48.17C400.428 45.2685 403.066 42.5641 406.053 40.1234C408.623 38.0398 411.359 36.0152 414.205 34.0852C416.077 32.8143 417.589 31.5181 418.718 30.2438C420.624 28.0688 423.368 26.824 426.25 26.824L426.57 26.824C429.493 26.824 433.795 27.7879 437.686 32.3197C439.41 34.3292 440.903 36.6643 442.133 39.2423C443.243 41.5796 444.128 43.9734 444.792 46.3772C445.544 49.1513 445.893 51.3927 445.893 53.4055C445.893 57.7053 444.978 61.8431 443.151 65.6833C441.63 68.8984 439.692 71.9469 437.385 74.7133C436.965 75.234 436.533 75.7404 436.094 76.2381C441.177 76.7598 445.151 81.0859 445.151 86.3529L445.151 86.8845C445.151 90.9937 443.018 93.2984 440.959 95.5333C439.551 97.0505 438.328 98.1723 437.119 99.06C436.946 99.2147 436.485 99.6077 435.43 100.555C434.071 101.77 432.57 103.039 430.983 104.339C429.373 105.65 427.78 106.889 426.225 108.005C423.823 109.721 421.126 111.323 417.752 111.323L417.538 111.323Z"
                fill="#050606"></path>
              <path
                d="M416.437 72.6401C417.284 72.6401 418.146 72.1979 419.038 71.3429C419.926 70.4815 420.717 69.4358 421.435 68.1822C422.139 66.9352 422.737 65.6532 423.184 64.3627C423.649 63.0851 423.89 62.0167 423.89 61.1584C423.89 60.4417 423.731 59.2796 423.4 57.6644C423.077 56.059 422.624 54.4144 422.019 52.7349C421.415 51.0489 420.683 49.5645 419.792 48.2739C418.891 46.9843 417.887 46.3461 416.769 46.3461L416.437 46.3461C415.943 46.3461 415.568 46.7589 415.319 47.5844C415.071 48.4089 414.921 49.3456 414.836 50.4281C414.769 51.5009 414.751 52.5803 414.778 53.6935C414.811 54.8032 414.836 55.6734 414.836 56.3258L414.836 60.5081C414.836 62.4436 414.888 64.3136 414.944 66.1401C415.011 67.9623 415.163 70.0609 415.371 72.4233C415.653 72.5616 416.003 72.6401 416.437 72.6401ZM427.714 35.9938C428.847 37.328 429.831 38.8681 430.69 40.6564C431.547 42.4448 432.206 44.2484 432.71 46.0727C433.198 47.8981 433.445 49.3456 433.445 50.4281C433.445 53.2143 432.859 55.838 431.691 58.3048C430.518 60.7793 429.054 63.085 427.29 65.2328C425.506 67.3773 423.592 69.3966 421.539 71.2949C419.484 73.1868 417.603 74.9948 415.903 76.7113L415.903 77.4682C415.903 78.2404 416.284 79.2076 417.076 80.3097C417.842 81.4152 418.751 82.4684 419.792 83.4726C420.807 84.4702 421.831 85.3405 422.857 86.0517C423.899 86.7728 424.696 87.1245 425.259 87.1245C426.603 87.1245 427.691 86.6889 428.508 85.8273C429.318 84.98 430.256 84.1479 431.313 83.3616L432.71 83.3616L432.71 83.8974C432.71 83.9638 432.206 84.5378 431.213 85.6172C430.221 86.6889 429.363 87.4697 428.657 87.9805C428.382 88.1929 427.62 88.8573 426.373 89.9704C425.13 91.0683 423.757 92.2304 422.278 93.4414C420.795 94.6678 419.38 95.7472 418.035 96.7361C416.68 97.6881 415.794 98.1716 415.371 98.1716L415.163 98.1716C413.462 97.5236 411.772 96.4215 410.107 94.8476C408.439 93.2804 406.955 91.4614 405.64 89.4269C404.318 87.3913 403.281 85.2839 402.508 83.0991C401.717 80.9219 401.335 78.9604 401.335 77.246L401.335 59.2284C401.335 56.2126 402.182 53.5976 403.882 51.3332C405.58 49.0841 407.632 46.9842 409.995 45.0588C412.387 43.1157 414.854 41.2827 417.44 39.5423C420.022 37.7779 422.174 35.934 423.89 33.9985L424.195 33.9985C425.403 33.9985 426.57 34.6629 427.714 35.9938Z"
                fill="white"></path>
              <path
                d="M504.943 111.536C502.309 111.536 498.385 110.742 494.639 106.948C493.107 105.411 491.721 103.619 490.499 101.619C490.231 101.741 489.955 101.876 489.689 101.997C489.279 102.554 488.849 103.13 488.414 103.724C487.717 104.683 487.006 105.59 486.368 106.381C485.416 107.517 482.551 110.989 477.521 110.989L477.29 110.989C473.423 110.989 469.883 108.754 468.225 105.223C467.683 104.106 467.066 103.035 466.356 102.029C466.315 101.966 466.256 101.884 466.166 101.798C466.075 101.782 465.982 101.766 465.892 101.73C465.209 102.345 464.526 102.982 463.826 103.629C463.001 104.401 462.259 105.112 461.607 105.763C459.981 109.175 456.519 111.536 452.516 111.536C452.405 111.536 452.269 111.536 452.138 111.521C451.978 111.521 451.822 111.513 451.662 111.492C448.66 111.26 445.893 109.744 443.836 107.233C443.09 106.329 442.441 105.351 441.891 104.294C441.741 104.03 441.609 103.776 441.476 103.514C440.809 103.065 440.149 102.645 439.431 102.186C438.336 101.497 437.305 100.814 436.402 100.164C431.99 96.968 431.063 93.2268 431.063 90.638L431.063 90.1C431.063 87.4097 432.131 84.8241 434.011 82.9192C434.297 82.6338 434.557 82.3376 434.798 82.0501C434.806 81.4152 434.821 80.6288 434.854 79.702C434.873 78.0682 434.887 76.3049 434.887 74.4381C434.887 72.4385 434.909 70.5336 434.943 68.7561C434.977 67.1365 434.989 66.0387 434.989 65.4277L434.989 57.746C431.396 56.0589 428.947 52.3852 428.947 48.0482L428.947 47.7193C428.947 42.6134 432.436 39.5988 433.58 38.6099C434.545 37.7625 435.626 36.9228 436.879 36.0275C437.926 35.2739 438.919 34.5604 439.885 33.8797C440.253 33.6325 440.468 33.4701 440.561 33.3917L444.658 29.2683C446.538 27.3711 449.106 26.2917 451.778 26.2917L452.595 26.2917L452.921 26.2917C456.029 26.2917 460.434 27.5595 463.667 33.6161C463.815 33.8862 463.963 34.1716 464.1 34.4417C465.947 32.9605 467.75 31.2918 469.434 29.4741C471.331 27.4341 473.98 26.2917 476.767 26.2917L477.29 26.2917C479.762 26.2917 484.473 27.1237 488.087 32.7471C488.459 33.3428 488.841 33.9429 489.198 34.58C489.361 34.4678 489.514 34.3851 489.636 34.2991C489.707 34.2424 489.801 34.1487 489.898 34.0485L491.977 31.9531C492.798 31.1285 493.504 30.438 494.128 29.8378C496.62 27.4876 499.371 26.2917 502.295 26.2917L502.818 26.2917C505.568 26.2917 509.599 27.2664 513.098 31.8734C513.47 32.38 513.872 32.9125 514.246 33.4364C514.924 33.3167 515.622 33.2567 516.339 33.2567C521.893 33.2567 526.391 37.8256 526.391 43.4271L526.391 44.5097C526.391 47.1988 525.341 49.7768 523.461 51.6849C522.692 52.4495 522.013 53.2228 521.403 54.0016L521.403 78.8437C525.407 80.1823 528.309 83.9942 528.309 88.5044C528.309 91.946 526.849 95.2885 523.926 98.4002C522.576 99.8553 521.028 101.347 519.304 102.824C517.776 104.143 516.291 105.391 514.89 106.544C514.012 107.281 513.631 107.659 513.504 107.781C511.605 110.156 508.74 111.536 505.69 111.536L504.943 111.536Z"
                fill="#050606"></path>
              <path
                d="M441.21 84.1706C441.916 83.1284 442.351 81.8954 442.492 80.4741C442.492 79.8196 442.512 78.6498 442.545 76.9289C442.578 75.2157 442.6 73.3794 442.6 71.4473C442.6 69.5217 442.612 67.6996 442.645 65.9754C442.693 64.2721 442.7 63.0849 442.7 62.4434L442.7 50.9574C442.76 49.9532 442.578 48.7225 442.113 47.25C441.653 45.7894 440.79 45.0586 439.509 45.0586C439.157 45.0586 438.771 45.1512 438.343 45.3189C437.926 45.4997 437.537 45.5933 437.188 45.5933C436.817 45.5933 436.646 45.4104 436.646 45.0586L436.646 44.7352C436.646 44.4465 437.013 43.9858 437.763 43.3334C438.513 42.7038 439.375 42.021 440.367 41.3054C441.361 40.5932 442.318 39.8993 443.243 39.2622C444.15 38.6174 444.793 38.1153 445.15 37.7625L449.402 33.4701L450.462 33.4701C451.027 33.3994 451.689 34.0582 452.439 35.46C453.178 36.8476 453.921 38.3778 454.675 40.0681C455.415 41.7475 456.147 43.304 456.844 44.7352C457.552 46.1597 458.154 46.8829 458.651 46.8829L458.96 46.8829C461.453 44.5925 464.042 42.425 466.751 40.3873C469.433 38.3473 471.982 36.0449 474.403 33.4701L474.928 33.4701C475.705 33.4701 476.484 34.0746 477.264 35.288C478.052 36.51 478.836 37.8375 479.609 39.2622C480.393 40.6943 481.146 42.021 481.891 43.2321C482.645 44.4465 483.324 45.0586 483.967 45.0586L484.506 45.0586C484.859 44.8484 485.416 44.4944 486.204 43.9858C486.991 43.4946 487.808 42.95 488.7 42.3738C489.581 41.7933 490.439 41.2641 491.261 40.7685C492.062 40.2653 492.647 39.8993 493.014 39.6923C493.427 39.4038 493.984 38.9322 494.66 38.2428C495.328 37.5598 496.031 36.8693 496.723 36.1581C497.427 35.4382 498.071 34.813 498.653 34.2729C499.211 33.736 499.635 33.4701 499.92 33.4701L500.455 33.4701C501.162 33.4701 501.928 33.9994 502.733 35.0788C503.551 36.1581 504.369 37.3278 505.173 38.5717C506 39.8133 506.754 40.9798 507.418 42.0579C508.091 43.1155 508.591 43.6634 508.964 43.6634C509.398 43.6634 509.773 43.4978 510.13 43.1754C510.483 42.8596 510.866 42.4861 511.242 42.0579C511.634 41.6245 512.048 41.2412 512.456 40.9264C512.894 40.5964 513.392 40.4461 513.939 40.4461L513.939 41.5189C512.691 42.7976 511.524 44.1458 510.506 45.5444C509.47 46.9276 508.964 48.5668 508.964 50.4292L508.964 83.6914C508.964 84.4701 509.299 85.2946 509.982 86.1584C510.644 87.0057 511.364 87.4436 512.151 87.4436C512.925 87.4436 513.555 87.1244 514.013 86.4688C514.481 85.8272 515.079 85.5125 515.877 85.5125C515.877 86.301 515.321 87.2746 514.233 88.4597C513.133 89.6425 511.854 90.859 510.395 92.1105C508.934 93.3695 507.53 94.5577 506.147 95.6981C504.758 96.8459 503.822 97.7413 503.316 98.385L502.578 98.385C501.515 98.385 500.455 97.8534 499.393 96.7688C498.319 95.6981 497.341 94.4194 496.461 92.9077C495.57 91.421 494.865 89.8756 494.336 88.317C493.798 86.728 493.538 85.4263 493.538 84.4331L493.538 50.9574C493.538 49.6014 493.19 48.2737 492.479 46.9842C491.763 45.687 490.706 45.0586 489.28 45.0586C487.435 45.125 485.908 46.0257 484.729 47.7498C483.51 49.4588 482.899 51.1458 482.899 52.7937L482.899 80.1376C482.899 80.8652 483.082 81.5643 483.442 82.2429C483.797 82.9191 484.161 83.5629 484.547 84.1706C484.951 84.7783 485.301 85.348 485.624 85.8838C485.94 86.4273 486.1 86.9446 486.1 87.4436C486.1 87.8737 485.885 88.2342 485.449 88.5109C485.036 88.794 484.535 89.0892 483.967 89.3669C483.41 89.6588 482.835 89.8984 482.269 90.1206C481.709 90.3373 481.278 90.5954 480.984 90.8742C480.701 91.091 480.284 91.5637 479.707 92.3272C479.153 93.0776 478.562 93.864 477.967 94.6742C477.347 95.5064 476.785 96.234 476.255 96.882C475.73 97.5234 475.351 97.8534 475.146 97.8534L474.928 97.8534C474.136 96.2045 473.237 94.6438 472.213 93.1822C471.186 91.7205 469.865 90.5126 468.233 89.5837C467.649 89.307 466.993 89.0892 466.208 88.9465C465.423 88.794 465.034 88.3769 465.034 87.657C464.956 87.0057 465.324 86.1769 466.097 85.1345C466.891 84.0954 467.407 83.3244 467.69 82.8321C467.917 79.7477 468.047 77.0182 468.125 74.6189C468.199 72.2196 468.233 69.7646 468.233 67.2672L468.233 61.693L468.233 51.7154C468.146 51.2885 468.068 50.7025 467.958 49.9934C467.854 49.279 467.649 48.5514 467.374 47.7945C467.084 47.0441 466.706 46.3993 466.267 45.8634C465.799 45.3189 465.209 45.0586 464.51 45.0586L463.759 45.0586C462.411 46.2718 461.193 47.3414 460.093 48.2737C459.004 49.2114 458.27 50.5304 457.911 52.2404C457.911 53.0344 457.889 54.4884 457.856 56.5914C457.822 58.7098 457.793 60.9218 457.752 63.2417C457.711 65.578 457.677 67.8041 457.652 69.9062C457.607 72.0181 457.595 73.4612 457.595 74.2552C457.443 74.3869 457.391 74.8138 457.391 75.5338L457.391 76.9289C457.391 78.1357 457.409 79.349 457.478 80.5797C457.552 81.7898 457.871 83.0096 458.454 84.224C458.729 84.8688 459.145 85.4263 459.717 85.9361C460.289 86.4426 460.571 87.0057 460.571 87.657C460.571 87.7997 459.935 88.4215 458.651 89.5314C457.391 90.6369 456.028 91.8621 454.621 93.1822C453.204 94.5098 451.971 95.6981 450.956 96.7688C449.913 97.8534 449.652 98.385 450.144 98.385C449.867 98.385 449.555 98.1824 449.247 97.7936C448.924 97.4145 448.637 96.9844 448.39 96.516C448.147 96.039 447.921 95.6001 447.703 95.1732C447.483 94.7374 447.349 94.4946 447.281 94.4194C446.913 93.7681 446.261 93.131 445.318 92.4818C444.358 91.8479 443.389 91.2141 442.427 90.603C441.486 90.0008 440.628 89.4267 439.885 88.8942C439.142 88.3474 438.771 87.95 438.771 87.657L438.771 87.1244C439.691 86.1942 440.503 85.1977 441.21 84.1706Z"
                fill="white"></path>
              <path
                d="M193.524 113.796C190.899 113.796 186.975 113.005 183.222 109.211C181.699 107.683 180.311 105.886 179.083 103.888C178.817 104.008 178.548 104.137 178.279 104.257C177.863 104.81 177.442 105.392 177.012 105.981C176.3 106.948 175.603 107.849 174.951 108.638C174.001 109.779 171.138 113.262 166.098 113.262L165.877 113.262C162.008 113.262 158.476 111.022 156.808 107.499C156.262 106.356 155.647 105.298 154.951 104.301C154.9 104.227 154.836 104.148 154.759 104.062C154.659 104.046 154.562 104.03 154.474 104.001C153.791 104.607 153.103 105.245 152.412 105.901C151.584 106.655 150.843 107.372 150.194 108.034C148.568 111.442 145.111 113.796 141.103 113.796C140.985 113.796 140.86 113.796 140.735 113.786C140.572 113.786 140.403 113.786 140.249 113.772C137.247 113.526 134.469 112.013 132.419 109.508C131.678 108.591 131.035 107.607 130.469 106.55C130.335 106.304 130.195 106.037 130.063 105.787C129.394 105.34 128.727 104.896 128.022 104.452C126.916 103.754 125.899 103.071 124.987 102.416C120.575 99.2415 119.658 95.4915 119.658 92.9038L119.658 92.3734C119.658 89.6669 120.711 87.0878 122.603 85.1829C122.882 84.89 123.152 84.6057 123.384 84.305C123.396 83.681 123.413 82.8891 123.434 81.9558C123.469 80.3254 123.473 78.5632 123.473 76.6964C123.473 74.6989 123.502 72.7907 123.537 71.0209C123.566 69.4089 123.582 68.2914 123.582 67.7001L123.582 60.0064C119.977 58.3281 117.531 54.6457 117.531 50.2978L117.531 49.9754C117.531 44.8782 121.022 41.8571 122.166 40.8659C123.143 40.0197 124.22 39.18 125.466 38.2802C126.512 37.5298 127.508 36.8262 128.473 36.1358C128.833 35.8885 129.055 35.723 129.158 35.6522L133.236 31.533C135.123 29.6205 137.695 28.5553 140.363 28.5553L141.183 28.5553C141.293 28.5553 141.401 28.5486 141.499 28.5486C144.619 28.5486 149.021 29.8197 152.251 35.8808C152.395 36.152 152.549 36.4198 152.68 36.7053C154.538 35.2208 156.333 33.5489 158.019 31.7421C159.922 29.7076 162.567 28.5552 165.347 28.5552L165.877 28.5552C168.357 28.5552 173.054 29.3961 176.665 35.0105C177.049 35.5998 177.431 36.1988 177.795 36.8447C177.955 36.7357 178.096 36.6453 178.23 36.5626C178.298 36.5102 178.377 36.4166 178.484 36.3012L180.557 34.2133C181.383 33.3845 182.087 32.694 182.721 32.0949C185.205 29.7402 187.95 28.5552 190.873 28.5552L191.403 28.5552C194.16 28.5552 198.176 29.5268 201.683 34.137C202.066 34.6436 202.459 35.1685 202.832 35.6891C203.515 35.5889 204.205 35.5246 204.919 35.5246C210.482 35.5246 214.976 40.0794 214.976 45.6874L214.976 46.7678C214.976 49.459 213.923 52.0381 212.038 53.9386C211.288 54.7065 210.603 55.482 209.991 56.2662L209.991 81.1116C214.003 82.4545 216.899 86.272 216.899 90.7581C216.899 94.2117 215.434 97.5455 212.512 100.668C211.17 102.123 209.613 103.612 207.897 105.08C206.366 106.399 204.879 107.659 203.477 108.815C202.597 109.535 202.214 109.916 202.1 110.044C200.182 112.406 197.32 113.797 194.284 113.797L193.524 113.796Z"
                fill="#050606"></path>
              <path
                d="M129.802 86.4307C130.509 85.4015 130.932 84.1633 131.074 82.7342C131.074 82.0818 131.091 80.9024 131.124 79.1858C131.165 77.4684 131.182 75.6429 131.182 73.7076C131.182 71.7776 131.197 69.9565 131.234 68.2389C131.273 66.5301 131.285 65.3494 131.285 64.6928L131.285 53.2142C131.352 52.2166 131.165 50.9881 130.705 49.5177C130.242 48.0561 129.371 47.3297 128.099 47.3297C127.74 47.3297 127.359 47.419 126.931 47.5845C126.511 47.7674 126.122 47.8622 125.763 47.8622C125.4 47.8622 125.234 47.6695 125.234 47.3297L125.234 46.9986C125.234 46.7144 125.598 46.2428 126.347 45.5969C127.093 44.9684 127.958 44.2768 128.957 43.5656C129.942 42.8446 130.903 42.1672 131.821 41.5289C132.74 40.882 133.373 40.3874 133.737 40.0194L137.988 35.7228L139.045 35.7228C139.614 35.6628 140.278 36.3228 141.024 37.7169C141.761 39.1045 142.51 40.6413 143.257 42.3208C143.995 44.0165 144.734 45.5664 145.434 46.9986C146.141 48.4166 146.741 49.1365 147.243 49.1365L147.551 49.1365C150.043 46.8537 152.629 44.683 155.328 42.6584C158.019 40.6118 160.563 38.3061 162.988 35.7228L163.516 35.7228C164.29 35.7228 165.07 36.3305 165.86 37.5525C166.636 38.7669 167.411 40.0945 168.192 41.5289C168.976 42.9502 169.733 44.2767 170.477 45.4934C171.229 46.7143 171.912 47.3297 172.552 47.3297L173.079 47.3297C173.442 47.0966 174.001 46.7448 174.791 46.2428C175.574 45.7472 176.4 45.2145 177.292 44.6373C178.171 44.0525 179.02 43.5209 179.844 43.0254C180.655 42.5309 181.235 42.1672 181.6 41.9493C182.013 41.6684 182.569 41.1892 183.251 40.4986C183.916 39.8136 184.606 39.123 185.314 38.4139C186.03 37.6951 186.656 37.0655 187.232 36.5406C187.801 35.9927 188.218 35.7228 188.504 35.7228L189.038 35.7228C189.747 35.7228 190.515 36.2629 191.315 37.3433C192.133 38.414 192.955 39.5761 193.769 40.8253C194.582 42.0734 195.334 43.2324 196.003 44.316C196.668 45.3866 197.182 45.9235 197.548 45.9235C197.983 45.9235 198.358 45.7537 198.718 45.4389C199.075 45.1253 199.442 44.7473 199.831 44.316C200.219 43.8869 200.63 43.5133 201.055 43.1757C201.482 42.8685 201.979 42.7041 202.532 42.7041L202.532 43.7834C201.272 45.0653 200.108 46.4027 199.093 47.7969C198.059 49.1965 197.548 50.8301 197.548 52.6872L197.548 85.9484C197.548 86.7412 197.88 87.5592 198.564 88.4217C199.236 89.268 199.949 89.6961 200.736 89.6961C201.513 89.6961 202.139 89.378 202.596 88.7354C203.058 88.0917 203.676 87.7694 204.469 87.7694C204.469 88.5525 203.907 89.549 202.807 90.7166C201.713 91.9037 200.433 93.1192 198.974 94.3674C197.524 95.6297 196.109 96.8256 194.734 97.9658C193.348 99.1128 192.409 99.9982 191.906 100.651L191.171 100.651C190.108 100.651 189.038 100.11 187.974 99.0386C186.905 97.9658 185.929 96.684 185.047 95.1722C184.155 93.6856 183.455 92.1488 182.919 90.5662C182.39 88.9837 182.129 87.6942 182.129 86.6889L182.129 53.2142C182.129 51.866 181.773 50.5306 181.058 49.2412C180.344 47.9636 179.298 47.3297 177.863 47.3297C176.028 47.3885 174.497 48.2816 173.31 50.0057C172.103 51.7156 171.496 53.3939 171.496 55.0439L171.496 82.4021C171.496 83.1209 171.675 83.8213 172.021 84.502C172.373 85.1826 172.751 85.8274 173.131 86.4307C173.533 87.0429 173.886 87.6049 174.203 88.1364C174.522 88.6788 174.68 89.2005 174.68 89.6961C174.68 90.1306 174.47 90.4954 174.035 90.7841C173.623 91.0521 173.123 91.345 172.552 91.6369C171.992 91.9157 171.42 92.1782 170.857 92.3808C170.285 92.5976 169.858 92.8524 169.568 93.1301C169.294 93.3469 168.864 93.8347 168.306 94.583C167.733 95.3389 167.149 96.1285 166.546 96.9465C165.938 97.7698 165.372 98.5061 164.844 99.1421C164.31 99.7924 163.935 100.11 163.728 100.11L163.516 100.11C162.728 98.4614 161.826 96.9039 160.81 95.4423C159.771 93.9883 158.449 92.786 156.816 91.8558C156.244 91.564 155.573 91.345 154.796 91.2024C154.011 91.0521 153.62 90.637 153.62 89.9281C153.543 89.268 153.907 88.4294 154.687 87.3914C155.475 86.36 155.996 85.5802 156.28 85.089C156.496 82.0078 156.636 79.2752 156.714 76.8834C156.778 74.4808 156.816 72.0248 156.816 69.522L156.816 63.9576L156.816 53.9712C156.743 53.5366 156.657 52.9746 156.548 52.2548C156.434 51.5392 156.244 50.8073 155.96 50.0579C155.676 49.2999 155.304 48.6552 154.854 48.116C154.388 47.5845 153.79 47.3297 153.096 47.3297L152.351 47.3297C150.997 48.5288 149.778 49.6016 148.681 50.5306C147.58 51.4706 146.85 52.7938 146.502 54.4973C146.502 55.2913 146.48 56.7495 146.444 58.8527C146.408 60.9623 146.376 63.1777 146.335 65.5106C146.303 67.8338 146.261 70.061 146.231 72.1598C146.199 74.2793 146.182 75.7126 146.182 76.5088C146.031 76.658 145.972 77.0784 145.972 77.7972L145.972 79.1858C145.972 80.4078 146.001 81.6298 146.069 82.8324C146.141 84.05 146.459 85.2589 147.037 86.4874C147.316 87.1322 147.74 87.6942 148.298 88.205C148.874 88.7072 149.158 89.268 149.158 89.9281C149.158 90.0565 148.521 90.685 147.243 91.7882C145.972 92.9035 144.618 94.1223 143.202 95.4423C141.789 96.7733 140.556 97.9746 139.536 99.0386C138.503 100.11 138.239 100.651 138.725 100.651C138.45 100.651 138.143 100.456 137.823 100.059C137.504 99.6672 137.226 99.2413 136.964 98.7751C136.732 98.3111 136.511 97.8646 136.288 97.4409C136.076 96.9987 135.936 96.7526 135.861 96.684C135.511 96.025 134.853 95.3922 133.899 94.7421C132.947 94.1169 131.974 93.4841 131.018 92.8763C130.063 92.2675 129.214 91.6902 128.473 91.1588C127.724 90.6197 127.359 90.2069 127.359 89.9281L127.359 89.378C128.273 88.4512 129.094 87.4698 129.802 86.4307Z"
                fill="white"></path>
              <path
                d="M531.947 111.323C529.208 111.323 526.574 110.186 524.683 108.176L517.717 100.822C515.636 98.5949 514.035 95.7763 512.939 92.4555C512.16 90.1007 511.605 88.0465 511.241 86.1841C511.171 85.9108 511.138 85.6166 511.114 85.3412C511 84.4338 510.917 83.128 510.848 81.1501C510.758 79.4293 510.702 77.5659 510.67 75.6097L510.565 70.3568C510.532 69.2437 510.505 67.7101 510.505 66.8225L510.505 65.7465C510.505 60.3225 511.42 55.9137 513.289 52.2694C515.004 48.9182 517.319 46.0103 520.179 43.6337C522.418 41.7745 524.97 40.0188 527.775 38.4145C529.332 37.5084 530.958 36.3452 532.607 34.9053C532.631 34.876 532.682 34.8324 532.716 34.779C533.246 34.059 533.805 33.3424 534.389 32.6497C535.18 31.6749 535.981 30.797 536.813 30.0228C539.819 27.2062 542.944 26.6072 545.035 26.6072C548.357 26.6072 551.699 27.7921 554.989 30.1381C556.914 31.5105 558.771 33.032 560.555 34.6853C560.796 34.9217 561.045 35.1384 561.285 35.378C561.883 35.2625 562.494 35.1961 563.111 35.1961C563.661 35.1961 564.226 35.2463 564.759 35.3487L566.05 35.5512C569.382 36.1056 572.218 38.3144 573.588 41.414C574.976 44.5257 574.714 48.1243 572.915 51.0028C572.173 52.214 571.359 53.4686 570.524 54.7396L570.524 67.036C570.524 69.0008 570.515 71.1704 570.483 73.682C570.456 74.4029 570.456 75.1185 570.483 75.8046C574.258 77.2761 576.913 80.9541 576.913 85.2845C576.913 88.8416 575.249 91.9457 573.632 94.5096C572.306 96.5844 570.79 98.7081 569.1 100.815C567.392 102.982 565.66 104.908 563.944 106.543C562.528 107.893 559.246 111.041 554.499 111.041C553.113 111.041 551.731 110.764 550.464 110.248L550.033 110.074C548.772 109.558 547.64 108.807 546.673 107.849C545.708 106.889 545.069 105.92 544.11 104.233C542.818 105.425 541.67 106.603 540.65 107.795C538.738 110.032 535.937 111.323 533.032 111.323L531.947 111.323Z"
                fill="#050606"></path>
              <path
                d="M533.473 80.7362C533.783 81.7785 534.206 82.761 534.756 83.691C535.279 84.6169 535.931 85.389 536.72 85.986C537.505 86.6078 538.419 86.9073 539.478 86.9073C540.336 86.9073 541.06 86.6144 541.669 86.0524C542.261 85.4674 542.762 84.7868 543.153 84.0168C543.543 83.2228 543.818 82.3601 544.011 81.442C544.179 80.5053 544.26 79.7212 544.26 79.0732L544.26 77.4677C544.26 76.7489 544.251 75.4452 544.21 73.5393C544.179 71.6506 544.137 69.6565 544.111 67.5381C544.077 65.4273 544.043 63.395 544.011 61.4792C543.959 59.5416 543.936 58.1922 543.936 57.3972C543.668 56.394 543.211 55.2537 542.569 53.9718C541.919 52.6702 541.167 51.4744 540.287 50.3645C539.396 49.2558 538.419 48.3181 537.353 47.5284C536.299 46.729 535.223 46.3468 534.165 46.3468C533.806 46.3468 533.547 46.6538 533.373 47.2496C533.18 47.8682 533.041 48.6296 532.939 49.5075C532.823 50.4027 532.783 51.4025 532.783 52.5254L532.783 55.673L532.783 59.107L532.783 77.9862C532.922 78.7802 533.147 79.7026 533.473 80.7362ZM518.527 77.7302C518.456 76.0508 518.404 74.282 518.373 72.4229C518.331 70.5637 518.304 68.8091 518.263 67.1634C518.233 65.5253 518.207 64.4046 518.207 63.8372L518.207 62.7589C518.207 59.0472 518.753 56.113 519.854 53.9718C520.96 51.8197 522.419 49.9932 524.227 48.488C526.025 46.9849 528.091 45.5821 530.382 44.248C532.705 42.9312 535.012 41.231 537.353 39.1562C537.627 38.8686 537.995 38.4286 538.419 37.8678C538.838 37.3046 539.302 36.7165 539.794 36.0979C540.296 35.4913 540.786 34.9554 541.296 34.4893C541.777 34.0209 542.234 33.7933 542.678 33.7933C543.877 33.7933 545.265 34.3433 546.816 35.4608C548.383 36.5706 549.885 37.8002 551.333 39.1562C552.797 40.5219 554.082 41.7473 555.231 42.8604C556.345 43.9734 557.148 44.5213 557.564 44.5213L558.088 44.5213L560.752 42.3736L562.027 42.5914C561.172 43.9408 560.303 45.2978 559.421 46.6614C558.524 48.0349 558.088 49.0978 558.088 49.8821L558.088 64.0485C558.088 66.0569 558.08 68.221 558.047 70.5409C557.995 72.8716 558.08 75.0129 558.236 76.9733C558.43 78.9446 558.746 80.5946 559.202 81.9136C559.664 83.2337 560.429 83.8969 561.495 83.8969C562.071 83.8969 562.52 83.6312 562.877 83.0986C563.236 82.5594 563.761 82.297 564.467 82.297C564.467 83.0093 563.911 84.253 562.778 86.0524C561.635 87.8385 560.336 89.6433 558.906 91.4621C557.43 93.2907 556.014 94.8624 554.647 96.1889C553.258 97.509 552.348 98.0666 551.918 97.8542L551.389 97.6364C551.239 97.4937 550.832 96.8337 550.174 95.6488C549.484 94.4572 548.758 93.2048 547.949 91.8477C547.125 90.4841 546.344 89.2686 545.61 88.1936C544.849 87.1241 544.293 86.6002 543.936 86.6002L543.421 86.6002C541.429 88.235 539.244 90.0527 536.881 92.0589C534.506 94.0455 532.422 96.1062 530.65 98.1722L529.584 98.1722L522.684 90.875C521.612 89.7413 520.771 88.1936 520.128 86.2549C519.487 84.3358 519.021 82.6488 518.746 81.2253C518.664 80.5794 518.595 79.4173 518.527 77.7302Z"
                fill="white"></path>
              <path
                d="M608.334 111.323C605.777 111.323 603.296 110.329 601.438 108.575L594.839 102.36C594.765 102.291 594.698 102.202 594.606 102.131C594.506 102.029 594.416 101.936 594.316 101.823C594.263 101.875 594.216 101.924 594.155 101.954C593.339 102.591 592.541 103.203 591.767 103.763C591.689 103.845 591.615 103.926 591.549 104.024C591.5 104.083 591.432 104.18 591.366 104.327C588.152 110.411 583.478 111.323 580.978 111.323L580.454 111.323C577.013 111.323 573.789 109.542 571.95 106.603C571.185 105.356 570.341 104.375 569.489 103.671C568.625 102.941 567.443 102.254 565.982 101.639C562.194 100.081 559.745 96.3731 559.745 92.2561L559.745 91.4992C559.745 88.9996 560.521 86.5033 561.97 84.3043C562.335 83.7587 562.728 83.1694 563.145 82.5737L563.145 58.5821C559.421 57.09 556.779 53.4054 556.779 49.1142C556.779 46.3544 557.861 43.8723 559.622 42.0207C559.77 41.8409 560.047 41.5109 560.435 40.9828C561.603 39.4982 562.93 37.8972 564.4 36.1808C566.036 34.2725 567.759 32.495 569.489 30.9028C571.682 28.9238 575.082 26.2924 579.596 26.2924L579.919 26.2924C582.427 26.2924 587.194 27.1462 590.95 32.8937C591.298 33.4589 591.659 34.0209 592.017 34.6244C592.398 34.3292 592.747 34.0744 593.03 33.8565C593.141 33.7366 593.273 33.6159 593.417 33.4709C594.122 32.7543 594.888 32.0192 595.725 31.2621C596.389 30.6632 596.988 30.112 597.497 29.6197C598.614 28.5741 601.244 26.0746 605.444 26.0746L605.659 26.0746C608.233 26.0746 612.025 26.947 615.441 31.0334C615.699 31.3406 615.938 31.6597 616.207 31.9811C617.031 31.7643 617.889 31.6597 618.737 31.6597C620.19 31.6597 621.628 31.9745 622.987 32.6116C626.543 34.2725 628.802 37.8679 628.802 41.8192L628.802 43.7534C628.802 46.1072 628.003 48.39 626.503 50.2229C625.462 51.5136 624.495 52.8696 623.646 54.2637C623.604 54.3171 623.496 54.488 623.496 55.0217L623.496 76.4788C627.902 77.5777 631.141 81.576 631.141 86.3529C631.141 89.0028 630.366 92.9717 626.608 96.7521L619.963 103.477C619.54 104.046 619.139 104.52 618.782 104.908C618.281 105.467 617.748 105.995 617.188 106.543C615.375 109.451 612.191 111.323 608.649 111.323L608.334 111.323Z"
                fill="#050606"></path>
              <path
                d="M567.985 86.9605C568.335 86.4278 568.725 85.8571 569.142 85.2309C569.582 84.6351 569.965 83.9642 570.332 83.2563C570.675 82.5429 570.859 81.7903 570.859 81.0073L570.859 50.9567C570.859 50.5974 570.765 50.1029 570.589 49.4582C570.414 48.8101 570.141 48.1903 569.782 47.5849C569.435 46.9771 569.034 46.4369 568.569 45.9718C568.107 45.5002 567.626 45.2682 567.127 45.2682L565.326 46.1265L564.467 46.1265C564.467 46.1962 564.984 45.5819 566.016 44.2477C567.035 42.9309 568.241 41.4661 569.623 39.8585C571.016 38.2433 572.432 36.7914 573.882 35.4605C575.349 34.1373 576.464 33.4707 577.238 33.4707L577.556 33.4707C578.396 33.4707 579.272 34.1493 580.171 35.5063C581.044 36.8699 581.902 38.3783 582.713 40.0675C583.537 41.747 584.263 43.2577 584.876 44.6377C585.536 45.9903 586.001 46.6613 586.276 46.6613C586.402 46.6613 586.96 46.3138 587.911 45.5939C588.891 44.8773 589.965 44.0527 591.218 43.115C592.458 42.2001 593.659 41.3049 594.791 40.4466C595.921 39.5763 596.723 38.9697 597.229 38.6169C597.288 38.5428 597.622 38.2237 598.172 37.6541C598.756 37.0877 599.387 36.4626 600.104 35.8286C600.804 35.1915 601.453 34.5914 602.021 34.0589C602.58 33.5153 602.948 33.2495 603.07 33.2495L603.284 33.2495C603.928 33.2495 604.626 33.7059 605.369 34.5914C606.113 35.491 606.852 36.4953 607.603 37.6007C608.342 38.7149 609.058 39.7866 609.734 40.8181C610.406 41.8439 611.024 42.5639 611.585 42.9146L616.366 38.8282L616.366 40.7657C615.015 42.4224 613.805 44.1279 612.718 45.9086C611.607 47.7035 611.057 49.7436 611.057 52.0384L611.057 79.6055C611.057 80.1119 611.141 80.7208 611.317 81.4429C611.491 82.1389 611.748 82.8446 612.123 83.5263C612.473 84.2093 612.865 84.7865 613.275 85.2951C613.706 85.7983 614.208 86.0521 614.773 86.0521L617.662 83.3609L618.707 83.3609C618.707 84.4337 618.179 85.513 617.112 86.6L609.668 94.1051C609.6 94.311 609.374 94.629 608.99 95.0637C608.582 95.483 608.145 95.9165 607.702 96.3423C607.234 96.7693 606.852 97.1712 606.543 97.5229C606.22 97.8758 606.127 98.1078 606.267 98.1721L605.945 98.1721L599.354 91.9454C598.372 90.9478 597.771 89.6964 597.549 88.1934C597.347 86.6893 597.229 85.2287 597.229 83.7889L597.229 80.6914C597.229 78.6154 597.274 75.6094 597.389 71.6701C597.497 67.7371 597.429 63.8196 597.229 59.9204C597.013 56.0333 596.563 52.6079 595.898 49.6759C595.231 46.7298 594.148 45.2682 592.648 45.2682C591.941 45.2682 591.198 45.5002 590.426 45.9718C589.642 46.4369 588.91 47.013 588.233 47.6883C587.558 48.3635 586.993 49.0977 586.537 49.8818C586.068 50.6693 585.819 51.3969 585.753 52.0384C585.612 52.9674 585.503 54.6457 585.418 57.0766C585.363 59.5119 585.303 62.1205 585.269 64.9109C585.227 67.699 585.202 70.3303 585.202 72.7973L585.202 77.9859L585.202 79.3843C585.202 80.6914 585.385 81.7783 585.753 82.6605C586.094 83.5634 586.503 84.3509 586.96 85.0229C587.442 85.7124 587.833 86.2732 588.193 86.7502C588.543 87.2142 588.709 87.6118 588.709 87.981C588.709 88.3393 588.401 88.7738 587.765 89.2683C587.135 89.7682 586.402 90.315 585.625 90.9259C584.844 91.5337 584.095 92.111 583.352 92.6501C582.602 93.1828 582.104 93.6586 581.809 94.1051C581.238 94.6671 580.669 95.483 580.105 96.5634C579.529 97.6362 579.031 98.1721 578.622 98.1721L578.079 98.1721C576.746 96.0242 575.215 94.2577 573.574 92.8679C571.899 91.4618 569.865 90.2769 567.443 89.2683L567.443 88.5114C567.443 88.0169 567.626 87.5071 567.985 86.9605Z"
                fill="white"></path>
              <path
                d="M66.0693 106.7C64.6447 109.632 63.0251 111.987 61.1637 113.774C59.3297 115.558 57.2908 116.941 55.0602 117.856C52.8177 118.782 50.378 119.397 47.7118 119.677C45.0662 119.967 42.2073 120.105 39.1598 120.105C37.8061 120.105 36.2476 120.071 34.4723 120.001C32.7013 119.932 30.9163 119.76 29.1061 119.462C27.3047 119.172 25.5936 118.774 23.999 118.232C22.4046 117.699 21.0792 116.973 20.0205 116.042C18.6645 114.885 17.4436 113.679 16.3446 112.38C15.2446 111.101 14.6947 109.558 14.6947 107.78C14.6947 105.77 15.2097 104.054 16.2423 102.63C17.2595 101.184 18.5512 100.035 20.1141 99.1349C21.6792 98.2506 23.3663 97.5797 25.17 97.156C26.9791 96.7225 28.6335 96.5046 30.1157 96.5046C32.5325 96.5046 34.9102 96.7617 37.2431 97.2605C39.5847 97.7648 41.813 98.4749 43.9466 99.4061C44.3769 99.6893 44.9062 100.208 45.5456 100.96C45.722 101.167 45.8864 101.399 46.0585 101.602C46.932 100.879 47.6944 99.991 48.4263 99.0391C48.8021 98.7831 49.1898 98.5436 49.644 98.1525C50.9117 97.0405 52.2131 95.7727 53.531 94.3373C54.8315 92.9039 56.0427 91.548 57.1383 90.2541C58.2405 88.9689 58.9909 88.1183 59.4255 87.6914C59.5333 87.5749 59.6673 87.3984 59.7674 87.2862C59.8078 87.259 59.8535 87.2264 59.8883 87.1925C60.3567 86.7569 60.6464 86.3909 60.8446 86.0686C61.2988 85.5578 61.7029 85.1341 62.193 84.523C63.1862 83.2629 63.6884 81.9962 63.6884 80.7002C63.0447 80.7002 62.5307 80.9769 62.1343 81.517C61.7476 82.0562 61.3761 82.6486 61.0288 83.2858C60.7031 83.875 60.3393 84.4109 59.957 84.901C59.6248 85.0361 59.3188 85.2289 59.0269 85.4793C58.8951 85.6101 58.7404 85.6514 58.6 85.7538C58.4148 85.7897 58.2569 85.866 58.0456 85.866C57.4726 85.866 56.8421 85.5796 56.1221 85.0066C55.4229 84.4338 54.7651 83.7596 54.1596 82.9634C53.5561 82.1836 53.0464 81.3592 52.6184 80.5053C52.1839 79.635 51.9835 78.9108 51.9835 78.3466L51.2156 42.1566L51.2156 24.7958C51.2156 23.4432 51.2352 21.9804 51.2613 20.4022C51.2994 18.8317 51.4781 17.3918 51.8037 16.1143C52.1044 14.8138 52.6086 13.7564 53.2893 12.8905C53.9526 12.0322 54.9709 11.6042 56.316 11.6042C56.6799 11.6042 56.7778 11.8373 56.6352 12.298C56.4978 12.774 56.254 13.3436 55.9392 14.0221C55.6267 14.6973 55.2834 15.414 54.9361 16.1633C54.569 16.9202 54.41 17.576 54.41 18.15C54.41 19.8663 54.8891 21.2833 55.8879 22.3822C56.8802 23.502 58.2743 24.0541 60.0365 24.0541C62.0351 24.0541 63.4401 23.4497 64.2864 22.28C65.1413 21.1037 65.5649 19.6126 65.5649 17.8198C65.5649 15.1166 64.429 12.9624 62.1636 11.3798C59.8949 9.81252 57.4248 9.02182 54.7258 9.02182C52.8013 9.02182 50.8103 9.3965 48.7073 10.1045C46.6226 10.8288 44.7297 11.8144 43.0209 13.104C41.3174 14.3934 39.9201 15.9237 38.8256 17.7219C38.6067 18.0683 38.5152 18.4604 38.3365 18.8241C34.3917 20.497 35.5657 74.9953 35.9349 83.4209C33.2905 84.2094 30.6428 85.1984 27.9952 86.4694C25.2255 87.7916 22.7237 89.4111 20.4932 91.3007C18.2593 93.2046 16.4361 95.421 15.0203 97.9586C13.5935 100.504 12.8932 103.41 12.8932 106.7C12.8932 110.134 13.7057 113.059 15.3393 115.494C16.9654 117.929 19.0381 119.91 21.5594 121.456C24.0731 122.995 26.8548 124.135 29.9054 124.889C32.954 125.63 35.8576 126.013 38.6241 126.013C43.7342 126.013 48.4785 125.15 52.8743 123.389C57.2745 121.628 60.9656 118.472 63.9368 113.891C64.722 112.668 65.3874 111.539 65.9591 110.453C66.5234 109.385 66.8098 108.132 66.8098 106.7L66.0693 106.7Z"
                fill="white"></path>
            </svg>